<svg xmlns="http://www.w3.org/2000/svg" viewBox="0 0 100 100">
  <rect width="100" height="100" fill="#1e293b" rx="20"/>
  <circle cx="50" cy="45" r="32" fill="#3b82f6" opacity="0.2"/>
  <path d="M50 25c-13.8 0-25 11.2-25 25 0 11 7.2 20.4 17.1 23.7 1.3.2 1.7-.6 1.7-1.2v-4.3c-7 1.5-8.5-3.4-8.5-3.4-1.1-2.9-2.7-3.7-2.7-3.7-2.2-1.5.2-1.5.2-1.5 2.4.2 3.7 2.5 3.7 2.5 2.2 3.7 5.7 2.6 7.1 2 .2-1.6.8-2.6 1.5-3.2-5.4-.6-11.1-2.7-11.1-12 0-2.7.9-4.9 2.5-6.6-.3-.6-1.1-3.1.2-6.5 0 0 2-.7 6.6 2.5 1.9-.5 4-.8 6-.8s4.1.3 6 .8c4.6-3.2 6.6-2.5 6.6-2.5 1.3 3.4.5 5.9.2 6.5 1.5 1.7 2.5 3.9 2.5 6.6 0 9.4-5.7 11.4-11.2 12 .9.8 1.7 2.3 1.7 4.6v6.8c0 .7.4 1.4 1.7 1.2C67.8 70.4 75 61 75 50c0-13.8-11.2-25-25-25z" fill="#60a5fa"/>
  <circle cx="70" cy="30" r="8" fill="#22d3ee"/>
  <path d="M70 26v8M66 30h8" stroke="#1e293b" stroke-width="2" stroke-linecap="round"/>
</svg>
